<?xml version="1.0" encoding="UTF-8"?>
<svg version="1.1" xmlns="http://www.w3.org/2000/svg" width="200" height="200">
<path d="M0 0 C66 0 132 0 200 0 C200 66 200 132 200 200 C134 200 68 200 0 200 C0 134 0 68 0 0 Z " fill="#F8A41D" transform="translate(0,0)"/>
<path d="M0 0 C66 0 132 0 200 0 C200 66 200 132 200 200 C134 200 68 200 0 200 C0 134 0 68 0 0 Z M30 34 C30 34.66 30 35.32 30 36 C29.42636719 36.24492188 28.85273438 36.48984375 28.26171875 36.7421875 C15.86429973 43.63677977 7.77796118 62.02518384 4 75 C3.70351563 75.8971875 3.40703125 76.794375 3.1015625 77.71875 C0.95294966 85.20932688 0.71825945 92.42961295 0.6875 100.1875 C0.67928223 101.70186646 0.67928223 101.70186646 0.67089844 103.24682617 C0.88376351 125.67289557 10.86304769 145.91848789 25.93359375 162.12109375 C27.78114127 164.22424747 27.78114127 164.22424747 30 164 C30.33 164.99 30.66 165.98 31 167 C44.93209586 179.09777603 62.04042708 186.45034323 80 190 C80.76328613 190.17289551 81.52657227 190.34579102 82.31298828 190.52392578 C106.33416159 194.77990324 131.06530595 189.99309591 152 178 C152.96550781 177.45988281 153.93101562 176.91976562 154.92578125 176.36328125 C162.74412125 171.84311806 169.4987888 167.01429586 175.29296875 160.04296875 C176.38109163 158.74070727 177.50616775 157.46787493 178.67578125 156.23828125 C196.20920348 137.65688436 199.75459901 115.5472947 199.12304688 90.86669922 C198.60866067 78.88272531 194.72403218 69.08905138 188.96826172 58.74511719 C188.14069141 57.25357091 187.34966042 55.74184987 186.56640625 54.2265625 C174.83851102 32.71962109 151.72164656 18.77887258 128.8515625 12.0078125 C127.58054687 11.67523438 126.30953125 11.34265625 125 11 C124.35571045 10.81453613 123.7114209 10.62907227 123.04760742 10.43798828 C115.80904985 8.54275926 108.50249845 8.60193974 101.0625 8.625 C100.37469452 8.62587616 99.68688904 8.62675232 98.97824097 8.62765503 C74.21542781 8.73167475 48.37814508 16.41081569 30 34 Z " fill="#FEFDFB" transform="translate(0,0)"/>
<path d="M0 0 C1 1 1 1 1.11352539 3.95922852 C1.10567017 5.89946899 1.10567017 5.89946899 1.09765625 7.87890625 C1.0962413 8.5655687 1.09482635 9.25223114 1.09336853 9.95970154 C1.08775479 12.16067801 1.07520007 14.36155409 1.0625 16.5625 C1.05748676 18.05143083 1.05292355 19.54036324 1.04882812 21.02929688 C1.03778093 24.68623075 1.02050713 28.34310558 1 32 C1.66241699 32.06566162 2.32483398 32.13132324 3.00732422 32.19897461 C4.82371759 32.37968468 6.63995661 32.56195151 8.45605469 32.74560547 C10.24323651 32.92432365 12.03145171 33.09285923 13.8203125 33.25390625 C26.94773526 35.01164591 40.47306299 42.58283619 48.578125 53.03515625 C54.66081332 62.10675177 55.19377098 72.18622634 53.5703125 82.8125 C50.91598944 93.29871455 42.79097347 101.87485706 33.69140625 107.40234375 C23.13431756 112.95959523 12.91080519 115.61578048 1 116 C1.08733576 117.60517097 1.19552224 119.20921662 1.3125 120.8125 C1.37050781 121.70582031 1.42851563 122.59914063 1.48828125 123.51953125 C1.84943111 125.9834987 1.84943111 125.9834987 3.1015625 127.7890625 C5.99972711 129.63768602 8.66405592 129.45355298 12.0625 129.5625 C18.79166667 129.79166667 18.79166667 129.79166667 21 132 C20.625 135.625 20.625 135.625 20 139 C11.29902254 139.17683847 2.59792621 139.34280229 -6.10352135 139.49477577 C-10.14368423 139.56568261 -14.18370409 139.64037419 -18.22363281 139.72363281 C-22.12031541 139.80380139 -26.0170614 139.87413594 -29.91405106 139.93757248 C-31.40290523 139.96355297 -32.89170127 139.99311352 -34.38041306 140.02626419 C-36.46108933 140.07199298 -38.54160613 140.10513838 -40.62255859 140.13525391 C-41.80836517 140.15746002 -42.99417175 140.17966614 -44.21591187 140.20254517 C-47 140 -47 140 -49 138 C-49.25 135 -49.25 135 -49 132 C-45.62306814 128.62306814 -40.88188211 129.58876768 -36.28515625 129.44140625 C-33.08544013 129.24808968 -33.08544013 129.24808968 -31.0703125 127.7578125 C-29.67798159 125.47113765 -29.69691838 123.97087721 -29.8125 121.3125 C-29.83957031 120.50425781 -29.86664063 119.69601563 -29.89453125 118.86328125 C-29.94673828 117.94095703 -29.94673828 117.94095703 -30 117 C-31.52367188 116.76216797 -31.52367188 116.76216797 -33.078125 116.51953125 C-48.28809194 114.00185314 -65.29075301 108.88251308 -75 96 C-81.28039412 85.31480458 -83.73168906 75.80256828 -81 63.5625 C-77.86397783 53.16798519 -70.64750721 45.26150445 -61.29394531 40.04931641 C-56.26608286 37.39551419 -51.23353779 35.70313751 -45.75 34.25 C-44.96109375 34.02957031 -44.1721875 33.80914062 -43.359375 33.58203125 C-39.68039236 32.58149712 -36.87068107 32 -33 32 C-33 35.96 -33 39.92 -33 44 C-34.69125 44.515625 -36.3825 45.03125 -38.125 45.5625 C-43.62360689 47.57677116 -47.11354242 49.85618456 -50 55 C-52.94443875 61.42551381 -53.49063668 66.85129692 -53.4375 73.875 C-53.45748047 74.80441406 -53.47746094 75.73382813 -53.49804688 76.69140625 C-53.49295354 83.99524272 -52.25316265 91.21494044 -47.35449219 96.91455078 C-37.50300436 106.26536957 -22.15674337 106.56298955 -9.3203125 106.24609375 C1.13819651 105.77496862 11.8251501 104.03897602 20 97 C21.26489347 94.91662787 21.26489347 94.91662787 22 93 C22.66 93 23.32 93 24 93 C25.18354481 86.37022462 25.2557519 79.7852581 25.3125 73.0625 C25.34150391 71.92103516 25.37050781 70.77957031 25.40039062 69.60351562 C25.45633142 62.15478379 24.97322163 56.24983832 19.64990234 50.5559082 C14.07718404 45.97140033 8.17111069 45.2064956 1 43 C1 62.14 1 81.28 1 101 C-2.00957631 102.0031921 -4.03865396 102.12896682 -7.18359375 102.1328125 C-8.19357422 102.13410156 -9.20355469 102.13539063 -10.24414062 102.13671875 C-11.29794922 102.13285156 -12.35175781 102.12898438 -13.4375 102.125 C-14.48744141 102.12886719 -15.53738281 102.13273437 -16.61914062 102.13671875 C-18.13604492 102.13478516 -18.13604492 102.13478516 -19.68359375 102.1328125 C-20.60712646 102.13168457 -21.53065918 102.13055664 -22.48217773 102.12939453 C-24.81147814 102.00968841 -26.758192 101.59847636 -29 101 C-28.99777939 100.17473816 -28.99555878 99.34947632 -28.99327087 98.49920654 C-28.97312905 90.67395775 -28.9579556 82.84871783 -28.94818783 75.02344894 C-28.94299712 71.00162387 -28.9359698 66.97982044 -28.92456055 62.95800781 C-28.91359482 59.06763754 -28.90769455 55.17728793 -28.90512276 51.28690338 C-28.90329292 49.8119601 -28.8997205 48.33701778 -28.89426994 46.86208344 C-28.86351866 38.18570991 -29.14599531 29.64051802 -30 21 C-35.94 20.01 -41.88 19.02 -48 18 C-48.495 14.535 -48.495 14.535 -49 11 C-46.00468046 8.00468046 -42.35445478 8.16421489 -38.3125 7.625 C-28.55076398 6.21061809 -19.15241315 4.14654218 -9.8203125 0.890625 C-6.42634263 -0.18115496 -3.53811874 -0.20812463 0 0 Z " fill="#FEFDF7" transform="translate(114,27)"/>
<path d="M0 0 C7.08818094 0 12.31217955 1.73144452 17.68359375 6.4921875 C21.84399493 11.25751348 23.25183396 15.70303156 23.265625 21.9296875 C23.26949219 23.61771484 23.26949219 23.61771484 23.2734375 25.33984375 C23.26570313 26.50644531 23.25796875 27.67304687 23.25 28.875 C23.26160156 30.61330078 23.26160156 30.61330078 23.2734375 32.38671875 C23.25991483 38.30288876 23.04715244 43.42719614 21 49 C20.34 49 19.68 49 19 49 C18.76023438 49.75796875 18.52046875 50.5159375 18.2734375 51.296875 C16.00675391 56.10836286 11.74713791 57.96365942 7 60 C2.99089732 60.97075757 -0.88420651 60.98767726 -5 61 C-5.95036133 61.00692871 -6.90072266 61.01385742 -7.87988281 61.02099609 C-14.92044975 61.06901451 -21.95953314 61.05551072 -29 61 C-29 60.34 -29 59.68 -29 59 C-19.43 59 -9.86 59 0 59 C0 39.53 0 20.06 0 0 Z " fill="#F8A41D" transform="translate(117,71)"/>
<path d="M0 0 C2.0839403 0.11443603 4.16716493 0.24195547 6.25 0.375 C7.41015625 0.44460937 8.5703125 0.51421875 9.765625 0.5859375 C12.72663957 0.96500458 14.53544013 1.36869608 17 3 C20.32215103 9.64430205 19.14735071 19.27679344 19.1328125 26.53515625 C19.13376923 27.61268661 19.13472595 28.69021698 19.13571167 29.80039978 C19.13638853 32.07030292 19.13456893 34.34020806 19.13037109 36.61010742 C19.12505285 40.02852902 19.13031399 43.44681701 19.13671875 46.86523438 C19.14001319 58.94694584 18.9201291 70.95133913 18 83 C17.34 83 16.68 83 16 83 C15.67 64.19 15.34 45.38 15 26 C14.67 26 14.34 26 14 26 C14 22.04 14 18.08 14 14 C4.78402945 16.17390522 -4.18118975 18.48742304 -13 22 C-13 20 -13 20 -11.3125 17.9375 C-8.70794103 15.75530194 -7.35770338 15.24568561 -4 15 C-1.1875 15.4375 -1.1875 15.4375 1 16 C1 15.34 1 14.68 1 14 C10.41002278 11.70387244 10.41002278 11.70387244 15 12 C15.33 9.36 15.66 6.72 16 4 C14.51886719 3.81824219 14.51886719 3.81824219 13.0078125 3.6328125 C11.08582031 3.38144531 11.08582031 3.38144531 9.125 3.125 C7.84882812 2.96257813 6.57265625 2.80015625 5.2578125 2.6328125 C2 2 2 2 0 0 Z " fill="#EEAE41" transform="translate(67,45)"/>
<path d="M0 0 C1.65 0 3.3 0 5 0 C4.01 0.33 3.02 0.66 2 1 C2 20.47 2 39.94 2 60 C-19 61 -19 61 -27 60 C-27 60.66 -27 61.32 -27 62 C-16.44 61.67 -5.88 61.34 5 61 C5 61.33 5 61.66 5 62 C-9.93666623 65.61318924 -24.20380797 64.34557236 -39 61 C-39 60.67 -39 60.34 -39 60 C-36.03 60 -33.06 60 -30 60 C-30 59.34 -30 58.68 -30 58 C-20.1 58 -10.2 58 0 58 C0 38.86 0 19.72 0 0 Z " fill="#E7A73D" transform="translate(115,70)"/>
<path d="M0 0 C0.66 0 1.32 0 2 0 C2.05607422 0.92232422 2.05607422 0.92232422 2.11328125 1.86328125 C2.21189453 3.07564453 2.21189453 3.07564453 2.3125 4.3125 C2.37050781 5.11300781 2.42851563 5.91351563 2.48828125 6.73828125 C3.12140276 9.53658168 3.59178143 10.42425205 6 12 C9.35726429 12.50758449 9.35726429 12.50758449 13.0625 12.5625 C19.79166667 12.79166667 19.79166667 12.79166667 22 15 C21.625 18.625 21.625 18.625 21 22 C12.29902254 22.17683847 3.59792621 22.34280229 -5.10352135 22.49477577 C-9.14368423 22.56568261 -13.18370409 22.64037419 -17.22363281 22.72363281 C-21.12031541 22.80380139 -25.0170614 22.87413594 -28.91405106 22.93757248 C-30.40290523 22.96355297 -31.89170127 22.99311352 -33.38041306 23.02626419 C-35.46108933 23.07199298 -37.54160613 23.10513838 -39.62255859 23.13525391 C-41.40126846 23.16856308 -41.40126846 23.16856308 -43.21591187 23.20254517 C-46 23 -46 23 -48 21 C-48.25 18 -48.25 18 -48 15 C-46 13 -46 13 -43.375 12.875 C-42.59125 12.91625 -41.8075 12.9575 -41 13 C-41.639375 13.20625 -42.27875 13.4125 -42.9375 13.625 C-43.618125 14.07875 -44.29875 14.5325 -45 15 C-45.33 16.98 -45.66 18.96 -46 21 C-24.22 21 -2.44 21 20 21 C20 19.35 20 17.7 20 16 C19.11957031 15.95101562 18.23914063 15.90203125 17.33203125 15.8515625 C16.17058594 15.77679688 15.00914062 15.70203125 13.8125 15.625 C12.08966797 15.52058594 12.08966797 15.52058594 10.33203125 15.4140625 C7.16901594 15.02100315 4.83221407 14.43663032 2 13 C-0.55963546 8.8558283 -0.15981417 4.7145181 0 0 Z " fill="#FDEEC3" transform="translate(113,144)"/>
<path d="M0 0 C2.01337297 0.02257988 4.02291403 0.20753943 6.02734375 0.3984375 C8.41682572 3.98266046 8.32967543 5.77076346 8.44140625 10.03515625 C8.48007813 11.33388672 8.51875 12.63261719 8.55859375 13.97070312 C8.59004892 15.34244323 8.62129626 16.71418811 8.65234375 18.0859375 C8.69053572 19.46942535 8.72958817 20.85288973 8.76953125 22.23632812 C8.86394892 25.623562 8.94952493 29.01078819 9.02734375 32.3984375 C10.09275391 32.58019531 10.09275391 32.58019531 11.1796875 32.765625 C12.09878906 32.93320312 13.01789063 33.10078125 13.96484375 33.2734375 C14.88136719 33.43585937 15.79789063 33.59828125 16.7421875 33.765625 C17.49628906 33.97445312 18.25039062 34.18328125 19.02734375 34.3984375 C19.35734375 35.0584375 19.68734375 35.7184375 20.02734375 36.3984375 C18.6312131 36.25547859 17.23545067 36.10892192 15.83984375 35.9609375 C15.06253906 35.87972656 14.28523438 35.79851563 13.484375 35.71484375 C10.98093589 35.39246129 8.50243851 34.89345645 6.02734375 34.3984375 C5.69734375 24.1684375 5.36734375 13.9384375 5.02734375 3.3984375 C1.72734375 3.3984375 -1.57265625 3.3984375 -4.97265625 3.3984375 C-1.97265625 0.3984375 -1.97265625 0.3984375 0 0 Z " fill="#EAAD48" transform="translate(108.97265625,24.6015625)"/>
<path d="M0 0 C13.365 0.495 13.365 0.495 27 1 C27 1.33 27 1.66 27 2 C10.1070615 3.33257403 10.1070615 3.33257403 3 2 C3 2.66 3 3.32 3 4 C13.56 3.67 24.12 3.34 35 3 C35 3.33 35 3.66 35 4 C20.06333377 7.61318924 5.79619203 6.34557236 -9 3 C-9 2.67 -9 2.34 -9 2 C-6.03 2 -3.06 2 0 2 C0 1.34 0 0.68 0 0 Z " fill="#ECB456" transform="translate(85,128)"/>
<path d="M0 0 C0.66 0.33 1.32 0.66 2 1 C-2.03859004 6.9604914 -5.50194595 10.58936364 -11.9765625 13.73828125 C-15.31148928 15.81778193 -16.41064943 18.47578787 -18 22 C-18.66 22 -19.32 22 -20 22 C-20 22.99 -20 23.98 -20 25 C-20.7425 25.70125 -21.485 26.4025 -22.25 27.125 C-25.68243761 30.7134575 -27.21553599 34.42419565 -29 39 C-29.66 38.67 -30.32 38.34 -31 38 C-27.66328505 27.01129932 -20.26866996 17.815178 -12 10 C-11.34 10 -10.68 10 -10 10 C-9.75507813 9.40703125 -9.51015625 8.8140625 -9.2578125 8.203125 C-7.79047891 5.63301274 -6.27707775 4.45470034 -3.875 2.75 C-3.15054688 2.22921875 -2.42609375 1.7084375 -1.6796875 1.171875 C-1.12539063 0.78515625 -0.57109375 0.3984375 0 0 Z " fill="#ECB14F" transform="translate(40,26)"/>
<path d="M0 0 C2.94085139 0.97160872 5.87350345 1.95464549 8.7890625 3 C15.06183761 5.21188764 21.1092295 6.69090474 27.69921875 7.60546875 C30 8 30 8 31 9 C31.23828125 10.92578125 31.23828125 10.92578125 31.3125 13.3125 C31.34988281 14.09238281 31.38726562 14.87226563 31.42578125 15.67578125 C30.81650858 19.00162747 29.74632865 20.04579784 27 22 C24.29447755 22.4490016 21.95769409 22.69369634 19.25 22.75 C18.20392578 22.79447266 18.20392578 22.79447266 17.13671875 22.83984375 C15.42509187 22.91018458 13.71254185 22.95739946 12 23 C12 22.01 12 21.02 12 20 C17.28 19.67 22.56 19.34 28 19 C28.33 16.03 28.66 13.06 29 10 C26.69 10 24.38 10 22 10 C22 9.34 22 8.68 22 8 C19.03 8 16.06 8 13 8 C13 7.34 13 6.68 13 6 C9.7 5.34 6.4 4.68 3 4 C3 3.34 3 2.68 3 2 C2.01 2 1.02 2 0 2 C0 1.34 0 0.68 0 0 Z " fill="#EAA941" transform="translate(54,135)"/>
<path d="M0 0 C0.33 0 0.66 0 1 0 C1 2.64 1 5.28 1 8 C0.34 8 -0.32 8 -1 8 C-2.06671373 16.68815426 -2.31660714 25.3852651 -2.5625 34.125 C-2.60580156 35.57292622 -2.64941906 37.02084302 -2.69335938 38.46875 C-2.79921106 41.97906578 -2.90080239 45.48948913 -3 49 C-2.34 49 -1.68 49 -1 49 C-0.67 52.63 -0.34 56.26 0 60 C-6.9850964 53.0149036 -5.2837411 38.46541791 -5.32788086 29.30957031 C-5.24078103 20.3197703 -3.72805664 12.5457196 -1 4 C-0.65456431 2.66975075 -0.31459987 1.33787735 0 0 Z " fill="#E9AA42" transform="translate(6,68)"/>
<path d="M0 0 C0.66 0 1.32 0 2 0 C2.04935824 5.23273331 2.08569949 10.46533176 2.10986328 15.69824219 C2.11993431 17.47919067 2.13359185 19.26012257 2.15087891 21.04101562 C2.17507913 23.59769783 2.18647184 26.15416185 2.1953125 28.7109375 C2.20563507 29.50994476 2.21595764 30.30895203 2.22659302 31.13217163 C2.22699226 33.0895722 2.12241069 35.04643077 2 37 C1.34 37.66 0.68 38.32 0 39 C-1.0722622 42.05616432 -1.98066041 45.14538242 -2.90234375 48.25 C-4 51 -4 51 -7 53 C-5.44500817 47.61818431 -3.85730314 42.33370733 -1.6484375 37.1796875 C0.67431629 29.37187656 0.11776893 21.0522584 0.0625 13 C0.05798828 11.74832031 0.05347656 10.49664062 0.04882812 9.20703125 C0.03711415 6.13797059 0.02071073 3.06901093 0 0 Z " fill="#FEF2C7" transform="translate(198,85)"/>
<path d="M0 0 C1.32 0.33 2.64 0.66 4 1 C4 3.97 4 6.94 4 10 C-14.15 10 -32.3 10 -51 10 C-51 9.67 -51 9.34 -51 9 C-33.84 9 -16.68 9 1 9 C1.52174919 2.67082039 1.52174919 2.67082039 0 0 Z " fill="#ECAE4E" transform="translate(133,157)"/>
<path d="M0 0 C0.66 0 1.32 0 2 0 C2.03738281 0.61488281 2.07476562 1.22976562 2.11328125 1.86328125 C2.17902344 2.67152344 2.24476562 3.47976562 2.3125 4.3125 C2.37050781 5.11300781 2.42851563 5.91351563 2.48828125 6.73828125 C3.12140276 9.53658168 3.59178143 10.42425205 6 12 C9.35726429 12.50758449 9.35726429 12.50758449 13.0625 12.5625 C19.79166667 12.79166667 19.79166667 12.79166667 22 15 C21.625 18.625 21.625 18.625 21 22 C19.02 22 17.04 22 15 22 C15 21.67 15 21.34 15 21 C16.65 21 18.3 21 20 21 C20 19.35 20 17.7 20 16 C19.11957031 15.95101562 18.23914063 15.90203125 17.33203125 15.8515625 C16.17058594 15.77679688 15.00914062 15.70203125 13.8125 15.625 C12.66394531 15.55539063 11.51539062 15.48578125 10.33203125 15.4140625 C7.16901594 15.02100315 4.83221407 14.43663032 2 13 C-0.55963546 8.8558283 -0.15981417 4.7145181 0 0 Z " fill="#FEF4D2" transform="translate(113,144)"/>
<path d="M0 0 C-5.52760359 2.10575375 -10.06997733 3.37851209 -16 3 C-16.33 3.99 -16.66 4.98 -17 6 C-17.93972656 5.98259766 -17.93972656 5.98259766 -18.8984375 5.96484375 C-20.12433594 5.95130859 -20.12433594 5.95130859 -21.375 5.9375 C-22.59316406 5.92009766 -22.59316406 5.92009766 -23.8359375 5.90234375 C-26.04937142 5.85533666 -26.04937142 5.85533666 -28 7 C-28.66 6.67 -29.32 6.34 -30 6 C-29.42547254 9.93075644 -29.42547254 9.93075644 -27 13 C-28.32 13 -29.64 13 -31 13 C-31.625 9.625 -31.625 9.625 -32 6 C-29.73229985 3.73229985 -29.033109 3.65052712 -25.96484375 3.21875 C-25.15466797 3.09886719 -24.34449219 2.97898438 -23.50976562 2.85546875 C-22.66091797 2.73816406 -21.81207031 2.62085938 -20.9375 2.5 C-15.14736194 1.67348618 -9.48762732 0.72954057 -3.81469727 -0.71289062 C-2 -1 -2 -1 0 0 Z " fill="#FEF2CB" transform="translate(97,32)"/>
<path d="M0 0 C0.78375 0.04125 1.5675 0.0825 2.375 0.125 C-8.5462477 8.49795657 -26.52043626 5.22832322 -39.625 5.125 C-39.625 4.465 -39.625 3.805 -39.625 3.125 C-38.94179687 3.13660156 -38.25859375 3.14820313 -37.5546875 3.16015625 C-30.00734584 3.22771557 -22.47892004 3.03882817 -14.9375 2.75 C-13.95700684 2.71914307 -12.97651367 2.68828613 -11.96630859 2.65649414 C-11.04543457 2.6177417 -10.12456055 2.57898926 -9.17578125 2.5390625 C-8.34731689 2.5076416 -7.51885254 2.4762207 -6.6652832 2.44384766 C-3.60094351 1.96496437 -3.28284397 0.1563259 0 0 Z " fill="#EFA62C" transform="translate(127.625,126.875)"/>
<path d="M0 0 C0.66 0.33 1.32 0.66 2 1 C2 2.32 2 3.64 2 5 C0.700625 4.979375 -0.59875 4.95875 -1.9375 4.9375 C-3.29165633 4.91600546 -4.64756083 4.92851801 -6 5 C-6.33 5.33 -6.66 5.66 -7 6 C-9.85877909 6.23701239 -12.69883297 6.42219182 -15.5625 6.5625 C-16.36880859 6.60568359 -17.17511719 6.64886719 -18.00585938 6.69335938 C-20.00368805 6.79975262 -22.0018207 6.90040888 -24 7 C-24 9.97 -24 12.94 -24 16 C-24.33 16 -24.66 16 -25 16 C-25 12.7 -25 9.4 -25 6 C-23.94941406 5.81824219 -22.89882812 5.63648438 -21.81640625 5.44921875 C-12.59629809 3.85666965 -12.59629809 3.85666965 -3.625 1.25 C-2.42875 0.8375 -1.2325 0.425 0 0 Z " fill="#EDAF50" transform="translate(140,137)"/>
<path d="M0 0 C1.2380014 3.57644848 0.74926071 6.33694766 0 10 C-0.78375 10.103125 -1.5675 10.20625 -2.375 10.3125 C-5.33045181 10.77595022 -5.33045181 10.77595022 -7 14 C-8.32594105 14.36162029 -9.65938457 14.69728039 -11 15 C-11.33 15.66 -11.66 16.32 -12 17 C-14.5625 17.625 -14.5625 17.625 -17 18 C-14.0986526 15.00798549 -11.12799452 12.24609352 -7.9375 9.5625 C-4.55607593 6.64769967 -2.24933271 3.84261004 0 0 Z " fill="#EEAC39" transform="translate(164,117)"/>
<path d="M0 0 C0.89244917 3.00686719 1.02755796 5.50264703 0.875 8.625 C0.79472409 16.40029494 3.2608178 23.23386079 7 30 C6.34 30 5.68 30 5 30 C5 29.34 5 28.68 5 28 C4.360625 27.855625 3.72125 27.71125 3.0625 27.5625 C1 27 1 27 0 26 C-1.02051193 20.52373178 -1.15203055 15.18428257 -1.125 9.625 C-1.12886719 8.80644531 -1.13273437 7.98789063 -1.13671875 7.14453125 C-1.126739 1.126739 -1.126739 1.126739 0 0 Z " fill="#EDAA3C" transform="translate(32,92)"/>
<path d="M0 0 C0.66 0.33 1.32 0.66 2 1 C1.20335937 2.2684375 1.20335937 2.2684375 0.390625 3.5625 C-7.17890393 15.64896946 -7.17890393 15.64896946 -12 29 C-12.33 29 -12.66 29 -13 29 C-12.56699236 22.18012971 -11.09212176 17.08356979 -8 11 C-7.34 11 -6.68 11 -6 11 C-6 10.01 -6 9.02 -6 8 C-5.34 8 -4.68 8 -4 8 C-4 7.01 -4 6.02 -4 5 C-3.34 5 -2.68 5 -2 5 C-1.855625 4.360625 -1.71125 3.72125 -1.5625 3.0625 C-1 1 -1 1 0 0 Z " fill="#FEF5D4" transform="translate(17,46)"/>
<path d="M0 0 C13.365 0.495 13.365 0.495 27 1 C27 1.33 27 1.66 27 2 C10.1070615 3.33257403 10.1070615 3.33257403 3 2 C3 2.66 3 3.32 3 4 C1.7625 4.04125 0.525 4.0825 -0.75 4.125 C-1.79414062 4.15980469 -1.79414062 4.15980469 -2.859375 4.1953125 C-5 4 -5 4 -9 2 C-6.03 2 -3.06 2 0 2 C0 1.34 0 0.68 0 0 Z " fill="#E9AB46" transform="translate(85,128)"/>
<path d="M0 0 C8.75797927 4.2410687 15.76448 9.61051811 23 16 C22.01 16.33 21.02 16.66 20 17 C20 16.34 20 15.68 20 15 C17.03 14.505 17.03 14.505 14 14 C14.33 13.01 14.66 12.02 15 11 C14.43796875 10.72414063 13.8759375 10.44828125 13.296875 10.1640625 C10.91381206 8.95631972 8.5820992 7.67823191 6.25 6.375 C5.45078125 5.92898437 4.6515625 5.48296875 3.828125 5.0234375 C3.22484375 4.68570312 2.6215625 4.34796875 2 4 C2 3.34 2 2.68 2 2 C1.34 2 0.68 2 0 2 C0 1.34 0 0.68 0 0 Z " fill="#EAAD47" transform="translate(150,21)"/>
<path d="M0 0 C0 0.66 0 1.32 0 2 C-9.41002278 5.44419134 -9.41002278 5.44419134 -14 5 C-13.08358378 2.70895944 -12.30881685 1.24942899 -10.375 -0.3125 C-6.74055199 -1.36457706 -3.71572005 -0.61928668 0 0 Z " fill="#F3A61F" transform="translate(104,27)"/>
<path d="M0 0 C0 3.96 0 7.92 0 12 C-1.32 11.67 -2.64 11.34 -4 11 C-3.34 11 -2.68 11 -2 11 C-2 8.03 -2 5.06 -2 2 C-2.825 2.33 -3.65 2.66 -4.5 3 C-8.5873983 4.16782809 -11.76923344 4.1458885 -16 4 C-16 3.67 -16 3.34 -16 3 C-14.08487728 2.49411853 -12.16783078 1.99551609 -10.25 1.5 C-8.64898437 1.08234375 -8.64898437 1.08234375 -7.015625 0.65625 C-4 0 -4 0 0 0 Z " fill="#FEEEBF" transform="translate(81,59)"/>
<path d="M0 0 C5.30730454 0.44977157 8.49004209 1.03631338 13 4 C13.99 4 14.98 4 16 4 C16.226875 4.5775 16.45375 5.155 16.6875 5.75 C18.33038023 8.5663661 20.39533227 10.08077114 23 12 C22.67 12.66 22.34 13.32 22 14 C21.50113281 13.56429687 21.00226563 13.12859375 20.48828125 12.6796875 C14.18640141 7.45263456 7.51853036 4.17242471 0 1 C0 0.67 0 0.34 0 0 Z " fill="#ECAB44" transform="translate(136,62)"/>
<path d="M0 0 C0.99 0.33 1.98 0.66 3 1 C1.88147781 2.98283479 0.75498675 4.96117623 -0.375 6.9375 C-1.31472656 8.59072266 -1.31472656 8.59072266 -2.2734375 10.27734375 C-4 13 -4 13 -6 14 C-6 13.34 -6 12.68 -6 12 C-6.66 11.67 -7.32 11.34 -8 11 C-7.34 10.01 -6.68 9.02 -6 8 C-5.01 8 -4.02 8 -3 8 C-2.814375 6.8553125 -2.814375 6.8553125 -2.625 5.6875 C-2 3 -2 3 0 0 Z " fill="#EFAA36" transform="translate(186,140)"/>
<path d="M0 0 C0.99386719 0.00902344 1.98773438 0.01804688 3.01171875 0.02734375 C4.15060547 0.04474609 4.15060547 0.04474609 5.3125 0.0625 C2.7100219 2.6649781 0.39596696 3.09265406 -3.125 4.125 C-4.27871094 4.46660156 -5.43242188 4.80820313 -6.62109375 5.16015625 C-7.63300781 5.45792969 -8.64492188 5.75570312 -9.6875 6.0625 C-10.6775 6.3925 -11.6675 6.7225 -12.6875 7.0625 C-12.6875 5.0625 -12.6875 5.0625 -10.875 3 C-7.37516505 -0.09985382 -4.49655016 -0.05290059 0 0 Z " fill="#EDAA3E" transform="translate(66.6875,59.9375)"/>
<path d="M0 0 C1.81293089 0.14037521 3.6253443 0.28744889 5.4375 0.4375 C6.95150391 0.55931641 6.95150391 0.55931641 8.49609375 0.68359375 C11 1 11 1 12 2 C14.31952569 2.28101946 16.63885514 2.44782625 18.96875 2.62109375 C19.6390625 2.74613281 20.309375 2.87117187 21 3 C21.33 3.66 21.66 4.32 22 5 C16.5957757 5.2248832 12.18724757 4.4886411 7.0625 3 C6.03672852 2.71382812 6.03672852 2.71382812 4.99023438 2.421875 C3.32455474 1.95595063 1.66193325 1.47911589 0 1 C0 0.67 0 0.34 0 0 Z " fill="#FDF0C8" transform="translate(62,138)"/>
<path d="M0 0 C-1.65 0.33 -3.3 0.66 -5 1 C-4.67 2.65 -4.34 4.3 -4 6 C-4.99 5.67 -5.98 5.34 -7 5 C-10.87797662 4.56613908 -10.87797662 4.56613908 -12.75 6.5 C-13.1625 6.995 -13.575 7.49 -14 8 C-14.66 7.67 -15.32 7.34 -16 7 C-5.95496019 -2.20554081 -5.95496019 -2.20554081 0 0 Z " fill="#EDAD43" transform="translate(81,72)"/>
<path d="M0 0 C7.85496312 0.30803777 14.04059197 3.53090484 21 7 C21 7.33 21 7.66 21 8 C16.78829353 8.51050988 14.51817669 7.284316 10.98046875 5.08984375 C7.52338718 3.18742608 3.76740231 2.12765783 0 1 C0 0.67 0 0.34 0 0 Z " fill="#E9AB45" transform="translate(128,13)"/>
<path d="M0 0 C1.08539063 0.34933594 2.17078125 0.69867188 3.2890625 1.05859375 C4.73430661 1.51844415 6.17962297 1.97806755 7.625 2.4375 C8.69427734 2.78264648 8.69427734 2.78264648 9.78515625 3.13476562 C13.84175851 4.41873606 17.76939625 5.41945974 22 6 C22 6.33 22 6.66 22 7 C14.48388967 7.50107402 7.83465282 6.31746947 1 3 C0.67 2.01 0.34 1.02 0 0 Z " fill="#FEF5D2" transform="translate(58,183)"/>
<path d="M0 0 C0.4125 0.37511719 0.825 0.75023438 1.25 1.13671875 C5.1161529 4.56275157 9.03916966 7.40626836 13.49609375 10.01953125 C13.99238281 10.34308594 14.48867188 10.66664063 15 11 C15 11.33 15 11.66 15 12 C13.02 12 11.04 12 9 12 C9 11.34 9 10.68 9 10 C8.443125 9.79375 7.88625 9.5875 7.3125 9.375 C4.02987629 7.42316968 2.29326754 5.05769006 0 2 C0 1.34 0 0.68 0 0 Z " fill="#E8AB41" transform="translate(39,123)"/>
<path d="M0 0 C0 0.66 0 1.32 0 2 C-5.66221678 5.61752739 -11.40232633 5.69040043 -18 6 C-14.81099544 3.87399696 -12.09585431 2.97863761 -8.4375 1.875 C-7.28121094 1.52179688 -6.12492188 1.16859375 -4.93359375 0.8046875 C-2 0 -2 0 0 0 Z " fill="#FDF1D0" transform="translate(143,183)"/>
<path d="M0 0 C4.95 2.31 9.9 4.62 15 7 C10.48157644 8.12960589 9.77335642 7.78600891 5.8125 5.75 C4.93207031 5.31171875 4.05164062 4.8734375 3.14453125 4.421875 C1 3 1 3 0 0 Z " fill="#FEF3D3" transform="translate(42,175)"/>
<path d="M0 0 C0.33 0.66 0.66 1.32 1 2 C-3.75108017 6.72138592 -7.38074056 8.83872641 -14 10 C-11.44928686 7.17071068 -8.53378728 5.32106736 -5.3125 3.3125 C-4.31863281 2.68988281 -3.32476562 2.06726563 -2.30078125 1.42578125 C-1.54152344 0.95527344 -0.78226563 0.48476562 0 0 Z " fill="#FDECC8" transform="translate(165,169)"/>
<path d="M0 0 C3.88192126 3.76774711 7.79531881 7.62797789 11 12 C11 12.66 11 13.32 11 14 C6.65581282 12.55193761 5.82746764 9.61138436 3.8125 5.6875 C3.544375 5.130625 3.27625 4.57375 3 4 C2.01 4 1.02 4 0 4 C0 2.68 0 1.36 0 0 Z " fill="#ECB14E" transform="translate(173,38)"/>
<path d="M0 0 C4.75809749 0.59476219 8.94710294 2.4906128 13 5 C13.33 5.66 13.66 6.32 14 7 C12.03740738 6.60388039 10.07992339 6.18238306 8.125 5.75 C6.48917969 5.40195313 6.48917969 5.40195313 4.8203125 5.046875 C2 4 2 4 0.6171875 1.890625 C0.41351563 1.26671875 0.20984375 0.6428125 0 0 Z " fill="#ECA83B" transform="translate(120,71)"/>
<path d="M0 0 C1.9375 0.375 1.9375 0.375 4 1 C4.33 1.66 4.66 2.32 5 3 C6.32 3 7.64 3 9 3 C9 4.32 9 5.64 9 7 C10.32 7.33 11.64 7.66 13 8 C12.34 8.66 11.68 9.32 11 10 C9.66102417 9.04956626 8.32894573 8.08940853 7 7.125 C6.2575 6.59132812 5.515 6.05765625 4.75 5.5078125 C4.1725 5.01023438 3.595 4.51265625 3 4 C3 3.34 3 2.68 3 2 C2.01 1.67 1.02 1.34 0 1 C0 0.67 0 0.34 0 0 Z " fill="#EFAD47" transform="translate(27,162)"/>
<path d="M0 0 C0 3 0 3 -1.875 5 C-2.57625 5.66 -3.2775 6.32 -4 7 C-4.99 8.485 -4.99 8.485 -6 10 C-6.66 10 -7.32 10 -8 10 C-8 10.99 -8 11.98 -8 13 C-8.66 13 -9.32 13 -10 13 C-8.04643572 7.30210418 -4.98086349 3.37987165 0 0 Z " fill="#FEF1CF" transform="translate(47,71)"/>
<path d="M0 0 C0.33 1.32 0.66 2.64 1 4 C0.195625 4.28875 -0.60875 4.5775 -1.4375 4.875 C-4.1326468 5.73262568 -4.1326468 5.73262568 -5 8 C-7.5625 8.625 -7.5625 8.625 -10 9 C-6.83047153 5.73991357 -3.60062011 2.77762123 0 0 Z " fill="#EDB04A" transform="translate(157,126)"/>
<path d="M0 0 C0.33 0.66 0.66 1.32 1 2 C1.66 2.33 2.32 2.66 3 3 C0.03 5.475 0.03 5.475 -3 8 C-3.33 7.01 -3.66 6.02 -4 5 C-2.0625 2.3125 -2.0625 2.3125 0 0 Z " fill="#F0A832" transform="translate(165,164)"/>
<path d="M0 0 C0.66 0.33 1.32 0.66 2 1 C0.90751403 2.50852857 -0.19938499 4.00662831 -1.3125 5.5 C-1.92738281 6.3353125 -2.54226562 7.170625 -3.17578125 8.03125 C-3.77777344 8.6809375 -4.37976562 9.330625 -5 10 C-5.99 10 -6.98 10 -8 10 C-6.76044505 6.28133515 -4.81445146 4.67716114 -2 2 C-1.34 1.34 -0.68 0.68 0 0 Z " fill="#EFAA36" transform="translate(40,26)"/>
<path d="M0 0 C0.33 0.99 0.66 1.98 1 3 C1.78375 3.144375 2.5675 3.28875 3.375 3.4375 C6 4 6 4 8 5 C8 5.66 8 6.32 8 7 C6.53932801 6.54917531 5.08151968 6.08906463 3.625 5.625 C2.81289062 5.36976562 2.00078125 5.11453125 1.1640625 4.8515625 C-1 4 -1 4 -3 2 C-2.01 1.34 -1.02 0.68 0 0 Z " fill="#FEF4D6" transform="translate(139,12)"/>
<path d="M0 0 C0.66 0 1.32 0 2 0 C0.25 5.75 0.25 5.75 -2 8 C-4.125 7.625 -4.125 7.625 -6 7 C-5.195625 6.21625 -4.39125 5.4325 -3.5625 4.625 C-1.01309583 2.28017144 -1.01309583 2.28017144 0 0 Z " fill="#FCF0CF" transform="translate(136,120)"/>
<path d="M0 0 C2.32240046 2.85021875 3.93906527 5.46355091 5 9 C4.546875 11.15625 4.546875 11.15625 4 13 C3.32404685 11.58774074 2.65959941 10.16997095 2 8.75 C1.62875 7.96109375 1.2575 7.1721875 0.875 6.359375 C0 4 0 4 0 0 Z " fill="#EEB251" transform="translate(191,64)"/>
<path d="M0 0 C-9.41002278 3.44419134 -9.41002278 3.44419134 -14 3 C-12.02741645 0.33121049 -10.89126876 -0.02372318 -7.5625 -0.75 C-4.5073806 -0.96439434 -2.83953853 -0.82377821 0 0 Z " fill="#EAAB43" transform="translate(104,29)"/>
<path d="M0 0 C3.49158202 0.64658926 6.0974856 1.96039529 9 4 C9.33 4.99 9.66 5.98 10 7 C5.56541027 5.6062718 3.12621626 3.39417765 0 0 Z " fill="#FCEFCC" transform="translate(44,127)"/>
<path d="M0 0 C0.99 0 1.98 0 3 0 C3.33 3.63 3.66 7.26 4 11 C1.6870518 8.6870518 1.50419025 7.52095125 0.875 4.375 C0.70742188 3.55773437 0.53984375 2.74046875 0.3671875 1.8984375 C0.24601563 1.27195312 0.12484375 0.64546875 0 0 Z " fill="#ECB34E" transform="translate(2,117)"/>
<path d="M0 0 C0.94875 0.350625 1.8975 0.70125 2.875 1.0625 C0.875 3.0625 0.875 3.0625 -1.75 3.1875 C-2.53375 3.14625 -3.3175 3.105 -4.125 3.0625 C-4.455 2.0725 -4.785 1.0825 -5.125 0.0625 C-3.125 -0.9375 -3.125 -0.9375 0 0 Z " fill="#F1A825" transform="translate(146.125,177.9375)"/>
<path d="M0 0 C5.75 1.625 5.75 1.625 8 5 C5.03 4.505 5.03 4.505 2 4 C2 3.34 2 2.68 2 2 C1.34 2 0.68 2 0 2 C0 1.34 0 0.68 0 0 Z " fill="#FEF6D0" transform="translate(145,67)"/>
<path d="M0 0 C2.97 0.495 2.97 0.495 6 1 C6 2.98 6 4.96 6 7 C1.125 2.25 1.125 2.25 0 0 Z " fill="#EFAA3B" transform="translate(21,155)"/>
<path d="M0 0 C-2 2 -2 2 -5.625 2.125 C-6.73875 2.08375 -7.8525 2.0425 -9 2 C-5.945634 -1.054366 -3.9532319 -1.22686507 0 0 Z " fill="#EAAB43" transform="translate(135,141)"/>
<path d="M0 0 C0.66 0 1.32 0 2 0 C4.4294516 3.6441774 4.16179575 5.71241272 4 10 C2.26337666 6.77484237 1.1094072 3.48670834 0 0 Z " fill="#FEF4D7" transform="translate(191,62)"/>
<path d="M0 0 C0.66 0 1.32 0 2 0 C1.67 1.32 1.34 2.64 1 4 C0.34 4 -0.32 4 -1 4 C-1 4.99 -1 5.98 -1 7 C-1.66 7 -2.32 7 -3 7 C-1.125 1.125 -1.125 1.125 0 0 Z " fill="#EDA934" transform="translate(21,44)"/>
<path d="M0 0 C-2.68841859 2.25245881 -4.64641875 3.88213958 -8 5 C-8 4.01 -8 3.02 -8 2 C-4.77208445 -0.1519437 -3.71599191 -0.20086443 0 0 Z " fill="#FDF4D8" transform="translate(49,21)"/>
</svg>
